<svg id="Layer_1" data-name="Layer 1" xmlns="http://www.w3.org/2000/svg" viewBox="0 0 512 512"><defs><style>.cls-1{fill:#141f38;}</style></defs><title>bulb-glyph</title><path class="cls-1" d="M153.6,435.2A12.8,12.8,0,0,0,166.4,448H345.6a12.8,12.8,0,0,0,0-25.6H166.4A12.8,12.8,0,0,0,153.6,435.2Z"/><path class="cls-1" d="M192,371.2H166.4a12.8,12.8,0,0,0,0,25.6H345.6a12.8,12.8,0,1,0,0-25.6H192Z"/><path class="cls-1" d="M256,512a38.4,38.4,0,0,0,38.4-38.4H217.6A38.4,38.4,0,0,0,256,512Z"/><path class="cls-1" d="M153.6,326.23v6.57a38,38,0,0,0,2.25,12.8H217.6V268.8H204.8a38.4,38.4,0,1,1,38.4-38.4v12.8h25.6V230.4a38.4,38.4,0,1,1,38.4,38.4H294.4v76.8h61.75a38,38,0,0,0,2.25-12.8v-6.57a179.2,179.2,0,1,0-204.8,0Z"/><path class="cls-1" d="M192,230.4a12.8,12.8,0,1,0,12.8-12.8A12.81,12.81,0,0,0,192,230.4Z"/><path class="cls-1" d="M320,230.4a12.8,12.8,0,1,0-12.8,12.8A12.81,12.81,0,0,0,320,230.4Z"/><rect class="cls-1" x="243.2" y="268.8" width="25.6" height="76.8"/></svg>