<svg id="Layer_1" data-name="Layer 1" xmlns="http://www.w3.org/2000/svg" viewBox="0 0 512 512"><defs><style>.cls-1{fill:#141f38;}</style></defs><title>bulb-outline</title><path class="cls-1" d="M256,0A179.18,179.18,0,0,0,153.6,326.23v6.57a38.23,38.23,0,0,0,9.85,25.6,38.2,38.2,0,0,0,0,51.2,38.34,38.34,0,0,0,28.55,64h25.6a38.4,38.4,0,0,0,76.8,0H320a38.35,38.35,0,0,0,28.55-64,38.2,38.2,0,0,0,0-51.2,38.23,38.23,0,0,0,9.85-25.6v-6.57A179.18,179.18,0,0,0,256,0ZM204.8,243.2a12.8,12.8,0,1,1,12.8-12.8A12.81,12.81,0,0,1,204.8,243.2Zm38.4,25.6h25.6v76.8H243.2Zm51.2-38.4a12.8,12.8,0,1,1,12.8,12.8A12.81,12.81,0,0,1,294.4,230.4ZM320,371.2a12.8,12.8,0,1,1,0,25.6H192a12.8,12.8,0,0,1,0-25.6ZM268.8,473.6a12.8,12.8,0,0,1-25.6,0h25.6ZM320,448H192a12.8,12.8,0,0,1,0-25.6H320a12.8,12.8,0,1,1,0,25.6Zm23.75-142.77-10.95,7.64V332.8A13,13,0,0,1,320,345.6H294.4V268.8h12.8a38.4,38.4,0,1,0-38.4-38.4v12.8H243.2V230.4a38.4,38.4,0,1,0-38.4,38.4h12.8v76.8H192a13,13,0,0,1-12.8-12.8V312.87l-11-7.64a153.83,153.83,0,0,1-65.85-126c0-84.7,68.91-153.6,153.6-153.6S409.6,94.5,409.6,179.2A153.84,153.84,0,0,1,343.75,305.23Z"/></svg>